<svg width="20" height="20" viewBox="0 0 20 20" fill="none" xmlns="http://www.w3.org/2000/svg">
<g clip-path="url(#clip0_660_31466)">
<path d="M1.6665 1.66663L18.3332 18.3333" stroke="#667085" stroke-width="2" stroke-linecap="round" stroke-linejoin="round"/>
<path d="M5.59381 5.60213C3.05383 7.32935 1.6665 9.99996 1.6665 9.99996C1.6665 9.99996 4.6968 15.8333 9.99984 15.8333C11.7084 15.8333 13.181 15.2278 14.3924 14.407M9.1665 4.21514C9.43767 4.1834 9.7155 4.16663 9.99984 4.16663C15.3028 4.16663 18.3332 9.99996 18.3332 9.99996C18.3332 9.99996 17.7567 11.1097 16.6665 12.3612" stroke="#667085" stroke-width="2" stroke-linecap="round" stroke-linejoin="round"/>
<path d="M11.6667 11.8635C11.2243 12.2593 10.6403 12.5 10 12.5C8.61925 12.5 7.5 11.3808 7.5 10C7.5 9.31363 7.77661 8.69188 8.22443 8.24011" stroke="#667085" stroke-width="2" stroke-linecap="round" stroke-linejoin="round"/>
</g>
<defs>
<clipPath id="clip0_660_31466">
<rect width="20" height="20" fill="white"/>
</clipPath>
</defs>
</svg>
