<svg width="160" height="36" viewBox="0 0 160 36" fill="none" xmlns="http://www.w3.org/2000/svg">
<rect width="36.0563" height="36" rx="8" fill="#2196F3"/>
<path d="M14.6476 16.3125L18.0279 19.6875L21.4081 16.3125M11.2673 10.4062H24.7884C25.2367 10.4062 25.6666 10.584 25.9835 10.9005C26.3005 11.217 26.4786 11.6462 26.4786 12.0938V17.1562C26.4786 19.394 25.5882 21.5401 24.0034 23.1225C22.4186 24.7048 20.2691 25.5937 18.0279 25.5938C16.9181 25.5938 15.8192 25.3755 14.7939 24.9515C13.7686 24.5275 12.837 23.906 12.0523 23.1225C10.4675 21.5401 9.57715 19.394 9.57715 17.1562V12.0938C9.57715 11.6462 9.75522 11.217 10.0722 10.9005C10.3891 10.584 10.819 10.4062 11.2673 10.4062Z" stroke="#EFF4FF" stroke-width="1.5" stroke-linecap="round" stroke-linejoin="round"/>
<path d="M53.2403 10.1591V23.25H50.8688V10.1591H53.2403ZM58.0199 17.4972V23.25H55.706V13.4318H57.9177V15.1001H58.0327C58.2586 14.5504 58.6187 14.1136 59.113 13.7898C59.6116 13.4659 60.2273 13.304 60.9603 13.304C61.6378 13.304 62.228 13.4489 62.7309 13.7386C63.238 14.0284 63.63 14.4482 63.907 14.9979C64.1883 15.5476 64.3267 16.2145 64.3225 16.9986V23.25H62.0086V17.3565C62.0086 16.7003 61.8381 16.1868 61.4972 15.8161C61.1606 15.4453 60.6939 15.2599 60.0973 15.2599C59.6925 15.2599 59.3324 15.3494 59.0171 15.5284C58.706 15.7031 58.461 15.9567 58.282 16.2891C58.1073 16.6214 58.0199 17.0241 58.0199 17.4972ZM75.0931 13.4318L71.5966 23.25H69.0398L65.5434 13.4318H68.0107L70.2671 20.7251H70.3694L72.6321 13.4318H75.0931ZM80.7069 23.4418C79.7225 23.4418 78.8724 23.2372 78.1565 22.8281C77.4448 22.4148 76.8972 21.831 76.5137 21.0767C76.1302 20.3182 75.9384 19.4254 75.9384 18.3984C75.9384 17.3885 76.1302 16.5021 76.5137 15.7393C76.9015 14.9723 77.4427 14.3757 78.1373 13.9496C78.8319 13.5192 79.6479 13.304 80.5854 13.304C81.1906 13.304 81.7616 13.402 82.2985 13.598C82.8397 13.7898 83.317 14.0881 83.7303 14.4929C84.1479 14.8977 84.4761 15.4134 84.7147 16.0398C84.9533 16.6619 85.0727 17.4034 85.0727 18.2642V18.9737H77.0251V17.4141H82.8546C82.8504 16.9709 82.7545 16.5767 82.567 16.2315C82.3795 15.8821 82.1174 15.6072 81.7808 15.407C81.4484 15.2067 81.0606 15.1065 80.6174 15.1065C80.1444 15.1065 79.7289 15.2216 79.371 15.4517C79.013 15.6776 78.7339 15.9759 78.5336 16.3466C78.3376 16.7131 78.2374 17.1158 78.2332 17.5547V18.9162C78.2332 19.4872 78.3376 19.9773 78.5464 20.3864C78.7552 20.7912 79.0471 21.1023 79.4221 21.3196C79.7971 21.5327 80.236 21.6392 80.7389 21.6392C81.0755 21.6392 81.3802 21.5923 81.6529 21.4986C81.9256 21.4006 82.1622 21.2578 82.3624 21.0703C82.5627 20.8828 82.714 20.6506 82.8163 20.3736L84.9768 20.6165C84.8404 21.1875 84.5805 21.6861 84.197 22.1122C83.8177 22.5341 83.3319 22.8622 82.7396 23.0966C82.1472 23.3267 81.4697 23.4418 80.7069 23.4418ZM94.7902 16.027L92.6808 16.2571C92.6211 16.044 92.5167 15.8438 92.3676 15.6562C92.2227 15.4688 92.0267 15.3175 91.7795 15.2024C91.5324 15.0874 91.2298 15.0298 90.8718 15.0298C90.3903 15.0298 89.9855 15.1342 89.6574 15.343C89.3335 15.5518 89.1737 15.8224 89.178 16.1548C89.1737 16.4403 89.2781 16.6726 89.4912 16.8516C89.7085 17.0305 90.0665 17.1776 90.565 17.2926L92.2397 17.6506C93.1687 17.8509 93.8591 18.1683 94.3108 18.603C94.7667 19.0376 94.9968 19.6065 95.0011 20.3097C94.9968 20.9276 94.8157 21.473 94.4578 21.946C94.1041 22.4148 93.6119 22.7812 92.9812 23.0455C92.3505 23.3097 91.6261 23.4418 90.8079 23.4418C89.6062 23.4418 88.6389 23.1903 87.9059 22.6875C87.173 22.1804 86.7362 21.4751 86.5956 20.5717L88.852 20.3544C88.9542 20.7976 89.1716 21.1321 89.504 21.358C89.8363 21.5838 90.2689 21.6967 90.8015 21.6967C91.3513 21.6967 91.7923 21.5838 92.1247 21.358C92.4613 21.1321 92.6297 20.853 92.6297 20.5206C92.6297 20.2393 92.521 20.0071 92.3037 19.8239C92.0906 19.6406 91.7582 19.5 91.3065 19.402L89.6318 19.0504C88.69 18.8544 87.9933 18.5241 87.5416 18.0597C87.0899 17.5909 86.8662 16.9986 86.8704 16.2827C86.8662 15.6776 87.0302 15.1534 87.3626 14.7102C87.6993 14.2628 88.1659 13.9176 88.7625 13.6747C89.3633 13.4276 90.0558 13.304 90.8399 13.304C91.9905 13.304 92.896 13.549 93.5565 14.0391C94.2213 14.5291 94.6325 15.1918 94.7902 16.027ZM101.812 13.4318V15.2216H96.1677V13.4318H101.812ZM97.5611 11.0795H99.875V20.2969C99.875 20.608 99.9219 20.8466 100.016 21.0128C100.114 21.1747 100.242 21.2855 100.399 21.3452C100.557 21.4048 100.732 21.4347 100.923 21.4347C101.068 21.4347 101.2 21.424 101.32 21.4027C101.443 21.3814 101.537 21.3622 101.601 21.3452L101.991 23.1541C101.867 23.1967 101.69 23.2436 101.46 23.2947C101.234 23.3459 100.957 23.3757 100.629 23.3842C100.05 23.4013 99.5277 23.3139 99.0633 23.1222C98.5988 22.9261 98.2302 22.6236 97.9574 22.2145C97.689 21.8054 97.5569 21.294 97.5611 20.6804V11.0795Z" fill="#1D2939"/>
<path d="M106.499 23.25L102.804 10.1591H105.355L107.713 19.7791H107.835L110.353 10.1591H112.674L115.198 19.7855H115.313L117.672 10.1591H120.223L116.528 23.25H114.188L111.568 14.0646H111.465L108.838 23.25H106.499ZM123.588 23.4482C122.966 23.4482 122.405 23.3374 121.907 23.1158C121.413 22.8899 121.02 22.5575 120.731 22.1186C120.445 21.6797 120.302 21.1385 120.302 20.495C120.302 19.9411 120.405 19.483 120.609 19.1207C120.814 18.7585 121.093 18.4688 121.447 18.2514C121.8 18.0341 122.199 17.87 122.642 17.7592C123.089 17.6442 123.552 17.5611 124.029 17.5099C124.604 17.4503 125.071 17.397 125.429 17.3501C125.787 17.299 126.047 17.2223 126.209 17.12C126.375 17.0135 126.458 16.8494 126.458 16.6278V16.5895C126.458 16.108 126.315 15.7351 126.03 15.4709C125.744 15.2067 125.333 15.0746 124.796 15.0746C124.229 15.0746 123.78 15.1982 123.447 15.4453C123.119 15.6925 122.898 15.9844 122.783 16.321L120.622 16.0142C120.792 15.4176 121.074 14.919 121.466 14.5185C121.858 14.1136 122.337 13.8111 122.904 13.6108C123.471 13.4062 124.097 13.304 124.783 13.304C125.256 13.304 125.727 13.3594 126.196 13.4702C126.665 13.581 127.093 13.7642 127.481 14.0199C127.868 14.2713 128.18 14.6143 128.414 15.049C128.653 15.4837 128.772 16.027 128.772 16.679V23.25H126.547V21.9013H126.471C126.33 22.174 126.132 22.4297 125.876 22.6683C125.625 22.9027 125.307 23.0923 124.924 23.2372C124.545 23.3778 124.099 23.4482 123.588 23.4482ZM124.189 21.7479C124.653 21.7479 125.056 21.6562 125.397 21.473C125.738 21.2855 126 21.0384 126.183 20.7315C126.371 20.4247 126.464 20.0902 126.464 19.728V18.571C126.392 18.6307 126.268 18.6861 126.094 18.7372C125.923 18.7884 125.731 18.8331 125.518 18.8714C125.305 18.9098 125.094 18.9439 124.886 18.9737C124.677 19.0036 124.496 19.0291 124.342 19.0504C123.997 19.0973 123.688 19.174 123.415 19.2805C123.143 19.3871 122.927 19.5362 122.77 19.728C122.612 19.9155 122.533 20.1584 122.533 20.4567C122.533 20.8828 122.689 21.2045 123 21.4219C123.311 21.6392 123.707 21.7479 124.189 21.7479ZM131.099 23.25V13.4318H133.342V15.0682H133.444C133.623 14.5014 133.93 14.0646 134.365 13.7578C134.804 13.4467 135.305 13.2912 135.867 13.2912C135.995 13.2912 136.138 13.2976 136.295 13.3104C136.457 13.3189 136.591 13.3338 136.698 13.3551V15.4837C136.6 15.4496 136.444 15.4197 136.231 15.3942C136.023 15.3643 135.82 15.3494 135.624 15.3494C135.202 15.3494 134.823 15.4411 134.486 15.6243C134.154 15.8033 133.892 16.0526 133.7 16.3722C133.508 16.6918 133.413 17.0604 133.413 17.478V23.25H131.099ZM142.178 23.4418C141.193 23.4418 140.343 23.2372 139.627 22.8281C138.916 22.4148 138.368 21.831 137.984 21.0767C137.601 20.3182 137.409 19.4254 137.409 18.3984C137.409 17.3885 137.601 16.5021 137.984 15.7393C138.372 14.9723 138.913 14.3757 139.608 13.9496C140.303 13.5192 141.119 13.304 142.056 13.304C142.661 13.304 143.232 13.402 143.769 13.598C144.31 13.7898 144.788 14.0881 145.201 14.4929C145.619 14.8977 145.947 15.4134 146.185 16.0398C146.424 16.6619 146.543 17.4034 146.543 18.2642V18.9737H138.496V17.4141H144.325C144.321 16.9709 144.225 16.5767 144.038 16.2315C143.85 15.8821 143.588 15.6072 143.251 15.407C142.919 15.2067 142.531 15.1065 142.088 15.1065C141.615 15.1065 141.2 15.2216 140.842 15.4517C140.484 15.6776 140.205 15.9759 140.004 16.3466C139.808 16.7131 139.708 17.1158 139.704 17.5547V18.9162C139.704 19.4872 139.808 19.9773 140.017 20.3864C140.226 20.7912 140.518 21.1023 140.893 21.3196C141.268 21.5327 141.707 21.6392 142.21 21.6392C142.546 21.6392 142.851 21.5923 143.124 21.4986C143.396 21.4006 143.633 21.2578 143.833 21.0703C144.033 20.8828 144.185 20.6506 144.287 20.3736L146.447 20.6165C146.311 21.1875 146.051 21.6861 145.668 22.1122C145.288 22.5341 144.803 22.8622 144.21 23.0966C143.618 23.3267 142.94 23.4418 142.178 23.4418Z" fill="#2196F3"/>
</svg>
